<svg width="24" height="24" viewBox="0 0 24 24" fill="none" xmlns="http://www.w3.org/2000/svg">
<path d="M22.0486 2.83332C22.0486 3.05433 21.9608 3.26629 21.8045 3.42257C21.6483 3.57884 21.4363 3.66664 21.2153 3.66664H10.3821C10.1611 3.66664 9.94917 3.57884 9.79289 3.42257C9.63661 3.26629 9.54882 3.05433 9.54882 2.83332C9.54882 2.61231 9.63661 2.40035 9.79289 2.24407C9.94917 2.0878 10.1611 2 10.3821 2H21.2153C21.4363 2 21.6483 2.0878 21.8045 2.24407C21.9608 2.40035 22.0486 2.61231 22.0486 2.83332ZM18.7153 6.1666H10.3821C10.1611 6.1666 9.94917 6.25439 9.79289 6.41067C9.63661 6.56695 9.54882 6.77891 9.54882 6.99992C9.54882 7.22093 9.63661 7.43289 9.79289 7.58916C9.94917 7.74544 10.1611 7.83324 10.3821 7.83324H18.7153C18.9363 7.83324 19.1483 7.74544 19.3046 7.58916C19.4609 7.43289 19.5487 7.22093 19.5487 6.99992C19.5487 6.77891 19.4609 6.56695 19.3046 6.41067C19.1483 6.25439 18.9363 6.1666 18.7153 6.1666ZM16.2154 10.3332H10.3821C10.1611 10.3332 9.94917 10.421 9.79289 10.5773C9.63661 10.7335 9.54882 10.9455 9.54882 11.1665C9.54882 11.3875 9.63661 11.5995 9.79289 11.7558C9.94917 11.912 10.1611 11.9998 10.3821 11.9998H16.2154C16.4364 11.9998 16.6483 11.912 16.8046 11.7558C16.9609 11.5995 17.0487 11.3875 17.0487 11.1665C17.0487 10.9455 16.9609 10.7335 16.8046 10.5773C16.6483 10.421 16.4364 10.3332 16.2154 10.3332ZM13.7154 14.4998H10.3821C10.1611 14.4998 9.94917 14.5876 9.79289 14.7439C9.63661 14.9001 9.54882 15.1121 9.54882 15.3331C9.54882 15.5541 9.63661 15.7661 9.79289 15.9224C9.94917 16.0786 10.1611 16.1664 10.3821 16.1664H13.7154C13.9364 16.1664 14.1484 16.0786 14.3047 15.9224C14.4609 15.7661 14.5487 15.5541 14.5487 15.3331C14.5487 15.1121 14.4609 14.9001 14.3047 14.7439C14.1484 14.5876 13.9364 14.4998 13.7154 14.4998ZM8.47134 18.0772L7.04886 19.4997V2.83332C7.04886 2.61231 6.96106 2.40035 6.80479 2.24407C6.64851 2.0878 6.43655 2 6.21554 2C5.99453 2 5.78257 2.0878 5.62629 2.24407C5.47002 2.40035 5.38222 2.61231 5.38222 2.83332V19.4997L3.95891 18.0764C3.80266 17.9201 3.59073 17.8324 3.36975 17.8324C3.14878 17.8324 2.93685 17.9201 2.7806 18.0764C2.62434 18.2327 2.53656 18.4446 2.53656 18.6656C2.53656 18.8865 2.62434 19.0985 2.7806 19.2547L5.03639 21.5105C5.36139 21.8355 5.78805 21.998 6.21554 21.998C6.64303 21.998 7.06886 21.8355 7.39385 21.5105L9.64965 19.2547C9.72702 19.1773 9.78839 19.0855 9.83026 18.9844C9.87214 18.8833 9.89369 18.775 9.89369 18.6656C9.89369 18.5561 9.87214 18.4478 9.83026 18.3467C9.78839 18.2456 9.72702 18.1538 9.64965 18.0764C9.57228 17.999 9.48043 17.9377 9.37934 17.8958C9.27825 17.8539 9.16991 17.8324 9.06049 17.8324C8.95108 17.8324 8.84273 17.8539 8.74164 17.8958C8.64055 17.9377 8.5487 17.9999 8.47134 18.0772Z" fill="white"/>
</svg>
