<svg width="24" height="24" viewBox="0 0 24 24" fill="none" xmlns="http://www.w3.org/2000/svg">
<path d="M22.0496 21.1675C22.0496 21.3886 21.9618 21.6005 21.8055 21.7568C21.6492 21.9131 21.4372 22.0009 21.2162 22.0009H10.382C10.1609 22.0009 9.94894 21.9131 9.79265 21.7568C9.63635 21.6005 9.54855 21.3886 9.54855 21.1675C9.54855 20.9465 9.63635 20.7345 9.79265 20.5782C9.94894 20.4219 10.1609 20.3341 10.382 20.3341H21.2162C21.4372 20.3341 21.6492 20.4219 21.8055 20.5782C21.9618 20.7345 22.0496 20.9465 22.0496 21.1675ZM9.54855 17.0005C9.54855 17.2215 9.63635 17.4335 9.79265 17.5898C9.94894 17.7461 10.1609 17.8339 10.382 17.8339H18.716C18.937 17.8339 19.149 17.7461 19.3053 17.5898C19.4616 17.4335 19.5494 17.2215 19.5494 17.0005C19.5494 16.7795 19.4616 16.5675 19.3053 16.4112C19.149 16.2549 18.937 16.1671 18.716 16.1671H10.382C10.1609 16.1671 9.94894 16.2549 9.79265 16.4112C9.63635 16.5675 9.54855 16.7795 9.54855 17.0005ZM9.54855 12.8335C9.54855 13.0545 9.63635 13.2665 9.79265 13.4228C9.94894 13.5791 10.1609 13.6669 10.382 13.6669H16.2158C16.4368 13.6669 16.6488 13.5791 16.8051 13.4228C16.9614 13.2665 17.0492 13.0545 17.0492 12.8335C17.0492 12.6125 16.9614 12.4005 16.8051 12.2442C16.6488 12.0879 16.4368 12.0001 16.2158 12.0001H10.382C10.1609 12.0001 9.94894 12.0879 9.79265 12.2442C9.63635 12.4005 9.54855 12.6125 9.54855 12.8335ZM9.54855 8.66648C9.54855 8.88751 9.63635 9.09949 9.79265 9.25578C9.94894 9.41208 10.1609 9.49988 10.382 9.49988H13.7156C13.9366 9.49988 14.1486 9.41208 14.3049 9.25578C14.4612 9.09949 14.549 8.88751 14.549 8.66648C14.549 8.44545 14.4612 8.23347 14.3049 8.07717C14.1486 7.92088 13.9366 7.83308 13.7156 7.83308H10.382C10.1609 7.83308 9.94894 7.92088 9.79265 8.07717C9.63635 8.23347 9.54855 8.44545 9.54855 8.66648ZM9.64939 4.74365L7.39253 2.48596C7.07931 2.1747 6.65567 2 6.2141 2C5.77253 2 5.34889 2.1747 5.03567 2.48596L2.77964 4.74365C2.62337 4.89992 2.53558 5.11187 2.53558 5.33286C2.53558 5.55386 2.62337 5.76581 2.77964 5.92208C2.93591 6.07835 3.14786 6.16614 3.36886 6.16614C3.58986 6.16614 3.80181 6.07835 3.95808 5.92208L5.38153 4.49863V21.1675C5.38153 21.3886 5.46934 21.6005 5.62563 21.7568C5.78192 21.9131 5.9939 22.0009 6.21493 22.0009C6.43597 22.0009 6.64794 21.9131 6.80424 21.7568C6.96053 21.6005 7.04834 21.3886 7.04834 21.1675V4.49863L8.47096 5.92208C8.54817 5.99974 8.63998 6.06137 8.7411 6.10343C8.84222 6.14548 8.95066 6.16713 9.06017 6.16713C9.16969 6.16713 9.27812 6.14548 9.37924 6.10343C9.48036 6.06137 9.57217 5.99974 9.64939 5.92208C9.72685 5.84475 9.7883 5.75291 9.83023 5.6518C9.87216 5.5507 9.89374 5.44232 9.89374 5.33286C9.89374 5.22341 9.87216 5.11503 9.83023 5.01393C9.7883 4.91282 9.72685 4.82098 9.64939 4.74365Z" fill="#00BBF2"/>
</svg>
