<svg width="16" height="16" viewBox="0 0 16 16" fill="none" xmlns="http://www.w3.org/2000/svg">
<path d="M7.66433 6.68985C7.29322 6.01925 6.6975 5.14031 6.43381 4.53807C6.1213 5.24448 5.3563 6.33176 5.03076 7.01864C4.48061 8.16777 5.43768 9.16716 6.43381 9.21599C6.45986 9.21599 6.48264 9.21274 6.50869 9.20948C6.52822 8.89697 6.61286 8.58771 6.75609 8.28822C6.88956 8.00501 7.04907 7.7283 7.20533 7.45811C7.35182 7.20094 7.50808 6.94702 7.66433 6.68985ZM6.13758 6.92423C6.04317 7.087 5.95528 7.25302 5.8739 7.4223C5.7567 7.66971 5.80553 7.94315 6.01713 8.12545C6.08224 8.18079 6.092 8.27845 6.03666 8.34682C5.98132 8.41192 5.88366 8.42169 5.8153 8.36635C5.49628 8.09615 5.41164 7.66971 5.59068 7.29209C5.67532 7.1163 5.76972 6.94376 5.86413 6.77123C5.90645 6.69636 6.00085 6.67032 6.07573 6.71264C6.15386 6.7517 6.1799 6.84936 6.13758 6.92423Z" fill="#1A98FF"/>
<path d="M8.00289 2.52952C9.51011 2.52952 10.8741 3.13827 11.8637 4.12138L11.1345 4.84732L14.0708 5.25099L13.6672 2.31467L12.9412 3.04061C11.6749 1.78079 9.93005 0.999512 8.00289 0.999512C4.13554 0.999512 1.00391 4.13441 1.00391 7.99849H2.53066C2.53066 4.97754 4.97868 2.52952 8.00289 2.52952Z" fill="#1A98FF"/>
<path d="M13.4751 8.00175C13.4751 11.0227 11.0238 13.474 8.00289 13.474C6.49567 13.474 5.13168 12.8652 4.14205 11.8821L4.868 11.1562L1.93168 10.7525L2.33534 13.6888L3.06128 12.9596C4.32761 14.2195 6.07247 15.0007 7.99963 15.0007C11.867 15.0007 14.9986 11.8658 14.9986 8.00175H13.4751Z" fill="#1A98FF"/>
<path d="M8.97298 11.4622C10.35 11.3971 11.6717 10.0136 10.9132 8.42494C10.4607 7.47764 9.40594 5.97367 8.97298 4.99707C8.54002 5.97367 7.48529 7.47764 7.0328 8.42494C6.2743 10.0136 7.59597 11.3938 8.97298 11.4622ZM9.88122 8.29799C9.95609 8.25567 10.0505 8.28496 10.0928 8.35984C10.1579 8.48028 10.2198 8.60399 10.2784 8.72444C10.4867 9.16065 10.49 9.62617 10.2295 10.0428C10.184 10.1145 10.0863 10.1373 10.0147 10.0917C9.94307 10.0461 9.92028 9.94844 9.96586 9.87683C10.1709 9.55129 10.1612 9.19972 9.99841 8.8579C9.93982 8.73746 9.88122 8.62352 9.81937 8.50633C9.77705 8.43145 9.80635 8.33705 9.88122 8.29799Z" fill="#1A98FF"/>
</svg>
