<svg width="24" height="24" viewBox="0 0 24 24" fill="none" xmlns="http://www.w3.org/2000/svg">
<path d="M13.6665 22C13.4862 22 13.3107 21.9415 13.1665 21.8333L9.83315 19.3333C9.72966 19.2557 9.64565 19.1551 9.5878 19.0393C9.52994 18.9236 9.49982 18.796 9.49982 18.6667V13.9833L3.65315 7.40583C3.23792 6.9374 2.9668 6.35901 2.87239 5.7402C2.77797 5.12138 2.86427 4.48846 3.12092 3.91751C3.37757 3.34656 3.79365 2.86188 4.31914 2.52172C4.84463 2.18156 5.45718 2.0004 6.08315 2H17.9165C18.5424 2.00073 19.1548 2.1822 19.6801 2.52259C20.2054 2.86298 20.6212 3.34781 20.8775 3.91882C21.1339 4.48983 21.22 5.12273 21.1253 5.74146C21.0307 6.36018 20.7593 6.93841 20.344 7.40667L14.4998 13.9833V21.1667C14.4998 21.3877 14.412 21.5996 14.2557 21.7559C14.0995 21.9122 13.8875 22 13.6665 22ZM11.1665 18.25L12.8332 19.5V13.6667C12.8333 13.4626 12.9083 13.2657 13.044 13.1133L19.1007 6.29917C19.3026 6.0709 19.4344 5.7892 19.4802 5.48788C19.526 5.18655 19.4838 4.87842 19.3588 4.60046C19.2338 4.32251 19.0312 4.08655 18.7753 3.92091C18.5195 3.75527 18.2213 3.66699 17.9165 3.66667H6.08315C5.77853 3.66713 5.48051 3.75546 5.22482 3.92105C4.96914 4.08665 4.76666 4.3225 4.64166 4.60029C4.51666 4.87809 4.47445 5.18605 4.52009 5.48723C4.56574 5.78842 4.69729 6.07004 4.89899 6.29833L10.9565 13.1133C11.0918 13.2659 11.1665 13.4627 11.1665 13.6667V18.25Z" fill="white"/>
</svg>
