<svg width="24" height="24" viewBox="0 0 24 24" fill="none" xmlns="http://www.w3.org/2000/svg">
<path d="M9.5 2H6.16667C3.86917 2 2 3.86917 2 6.16667V7.83333C2 8.7525 2.7475 9.5 3.66667 9.5H9.5C10.4192 9.5 11.1667 8.7525 11.1667 7.83333V3.66667C11.1667 2.7475 10.4192 2 9.5 2ZM3.66667 7.83333V6.16667C3.66667 4.78833 4.78833 3.66667 6.16667 3.66667H9.5L9.50167 7.83333H3.66667ZM20.3333 14.5H14.5C13.5808 14.5 12.8333 15.2475 12.8333 16.1667V20.3333C12.8333 21.2525 13.5808 22 14.5 22H17.8333C20.1308 22 22 20.1308 22 17.8333V16.1667C22 15.2475 21.2525 14.5 20.3333 14.5ZM20.3333 17.8333C20.3333 19.2117 19.2117 20.3333 17.8333 20.3333H14.5V16.1667H20.3333V17.8333ZM17.8333 2H14.5C13.5808 2 12.8333 2.7475 12.8333 3.66667V11.1667C12.8333 12.0858 13.5808 12.8333 14.5 12.8333H20.3333C21.2525 12.8333 22 12.0858 22 11.1667V6.16667C22 3.86917 20.1308 2 17.8333 2ZM14.5 11.1667V3.66667H17.8333C19.2117 3.66667 20.3333 4.78833 20.3333 6.16667L20.335 11.1667H14.5ZM9.5 11.1667H3.66667C2.7475 11.1667 2 11.9142 2 12.8333V17.8333C2 20.1308 3.86917 22 6.16667 22H9.5C10.4192 22 11.1667 21.2525 11.1667 20.3333V12.8333C11.1667 11.9142 10.4192 11.1667 9.5 11.1667ZM6.16667 20.3333C4.78833 20.3333 3.66667 19.2117 3.66667 17.8333V12.8333H9.5L9.50167 20.3333H6.16667Z" fill="white"/>
</svg>
