<svg width="24" height="24" viewBox="0 0 24 24" fill="none" xmlns="http://www.w3.org/2000/svg">
<path fill-rule="evenodd" clip-rule="evenodd" d="M10.4 3.6918C9.68898 4.13181 8.84476 4.805 7.62729 5.77898L5.62729 7.37898C4.07702 8.61919 3.56921 9.05507 3.29625 9.62299C3.02329 10.1909 3.00016 10.8597 3.00016 12.8451V14.0001C3.00016 15.9139 3.00228 17.2488 3.13769 18.2559C3.26922 19.2343 3.50982 19.7524 3.87884 20.1214C4.24785 20.4904 4.76595 20.731 5.74432 20.8625C6.75145 20.9979 8.08627 21.0001 10.0002 21.0001H14.0002C15.914 21.0001 17.2489 20.9979 18.256 20.8625C19.2344 20.731 19.7525 20.4904 20.1215 20.1214C20.4905 19.7524 20.7311 19.2343 20.8626 18.2559C20.998 17.2488 21.0002 15.9139 21.0002 14.0001V12.8451C21.0002 10.8597 20.977 10.1909 20.7041 9.62299C20.4311 9.05507 19.9233 8.61919 18.373 7.37898L16.373 5.77898C15.1556 4.805 14.3113 4.13181 13.6003 3.6918C12.9124 3.26611 12.4466 3.12256 12.0002 3.12256C11.5537 3.12256 11.0879 3.26611 10.4 3.6918ZM9.34759 1.9911C10.2086 1.45827 11.0435 1.12256 12.0002 1.12256C12.9568 1.12256 13.7917 1.45827 14.6527 1.9911C15.4788 2.50232 16.4168 3.25276 17.5729 4.17762L19.6224 5.81724C19.6807 5.86387 19.7382 5.90985 19.795 5.95524C21.1024 6.99996 22.0116 7.72648 22.5067 8.75661C23.0018 9.78675 23.0011 10.9505 23.0002 12.624C23.0002 12.6967 23.0002 12.7704 23.0002 12.8451V14.0732C23.0002 15.8967 23.0002 17.3664 22.8448 18.5224C22.6834 19.7225 22.3382 20.733 21.5357 21.5356C20.7331 22.3381 19.7226 22.6833 18.5225 22.8447C17.3665 23.0001 15.8968 23.0001 14.0733 23.0001H9.92702C8.10355 23.0001 6.63378 23.0001 5.47782 22.8447C4.27768 22.6833 3.26718 22.3381 2.46462 21.5356C1.66207 20.733 1.31688 19.7225 1.15552 18.5224C1.00011 17.3664 1.00013 15.8967 1.00016 14.0732L1.00016 12.8451C1.00016 12.7704 1.00012 12.6967 1.00008 12.624C0.999166 10.9505 0.998532 9.78675 1.49364 8.75661C1.98875 7.72648 2.89791 6.99996 4.20527 5.95524C4.26206 5.90986 4.31961 5.86387 4.3779 5.81724L6.42745 4.1776C7.58348 3.25275 8.52149 2.50231 9.34759 1.9911Z" fill="#00BBF2"/>
<path fill-rule="evenodd" clip-rule="evenodd" d="M15.0002 18.0001H9.00016V16.0001H15.0002V18.0001Z" fill="#00BBF2"/>
</svg>
