<svg width="24" height="24" viewBox="0 0 24 24" fill="none" xmlns="http://www.w3.org/2000/svg">
<path d="M15.6115 19.9959C15.5238 19.9964 15.4369 19.9796 15.3557 19.9465C15.2745 19.9133 15.2006 19.8644 15.1384 19.8027L9.69402 14.3583C9.38373 14.0488 9.13755 13.6811 8.96958 13.2763C8.80161 12.8715 8.71515 12.4376 8.71515 11.9993C8.71515 11.5611 8.80161 11.1271 8.96958 10.7223C9.13755 10.3175 9.38373 9.94983 9.69402 9.64033L15.1384 4.19598C15.2005 4.13385 15.2743 4.08456 15.3554 4.05093C15.4366 4.01731 15.5236 4 15.6115 4C15.6994 4 15.7864 4.01731 15.8676 4.05093C15.9487 4.08456 16.0225 4.13385 16.0846 4.19598C16.1468 4.25811 16.1961 4.33187 16.2297 4.41305C16.2633 4.49423 16.2806 4.58124 16.2806 4.66911C16.2806 4.75698 16.2633 4.84399 16.2297 4.92517C16.1961 5.00635 16.1468 5.08011 16.0846 5.14224L10.6403 10.5866C10.2659 10.9614 10.0556 11.4695 10.0556 11.9993C10.0556 12.5291 10.2659 13.0372 10.6403 13.4121L16.0846 18.8564C16.1471 18.9184 16.1967 18.9921 16.2305 19.0733C16.2643 19.1545 16.2818 19.2416 16.2818 19.3295C16.2818 19.4175 16.2643 19.5046 16.2305 19.5858C16.1967 19.667 16.1471 19.7407 16.0846 19.8027C16.0224 19.8644 15.9485 19.9133 15.8673 19.9465C15.7861 19.9796 15.6992 19.9964 15.6115 19.9959Z" fill="#000000"/>
</svg>
