<svg width="24" height="24" viewBox="0 0 24 24" fill="none" xmlns="http://www.w3.org/2000/svg">
<path d="M8.55852 19.9959C8.47082 19.9964 8.38388 19.9796 8.30269 19.9465C8.2215 19.9133 8.14766 19.8644 8.08539 19.8027C8.02293 19.7407 7.97336 19.667 7.93952 19.5858C7.90569 19.5046 7.88828 19.4175 7.88828 19.3295C7.88828 19.2416 7.90569 19.1545 7.93952 19.0733C7.97336 18.9921 8.02293 18.9184 8.08539 18.8564L13.5297 13.4121C13.9041 13.0372 14.1144 12.5291 14.1144 11.9993C14.1144 11.4695 13.9041 10.9614 13.5297 10.5866L8.08539 5.14224C7.95991 5.01676 7.88941 4.84657 7.88941 4.66911C7.88941 4.49165 7.95991 4.32146 8.08539 4.19598C8.21087 4.0705 8.38106 4 8.55852 4C8.73598 4 8.90617 4.0705 9.03165 4.19598L14.476 9.64033C14.7863 9.94983 15.0325 10.3175 15.2004 10.7223C15.3684 11.1271 15.4549 11.5611 15.4549 11.9993C15.4549 12.4376 15.3684 12.8715 15.2004 13.2763C15.0325 13.6811 14.7863 14.0488 14.476 14.3583L9.03165 19.8027C8.96939 19.8644 8.89554 19.9133 8.81435 19.9465C8.73316 19.9796 8.64622 19.9964 8.55852 19.9959Z" fill="white"/>
</svg>
