<svg width="24" height="24" viewBox="0 0 24 24" fill="none" xmlns="http://www.w3.org/2000/svg">
<path d="M21.968 20.7932L16.765 15.5901C18.1165 13.9371 18.7811 11.8279 18.6211 9.6987C18.4611 7.56951 17.4889 5.58326 15.9055 4.15079C14.3221 2.71832 12.2487 1.94923 10.1142 2.0026C7.97969 2.05597 5.94734 2.92772 4.43753 4.43753C2.92772 5.94734 2.05597 7.97969 2.0026 10.1142C1.94923 12.2487 2.71832 14.3221 4.15079 15.9055C5.58326 17.4889 7.56951 18.4611 9.6987 18.6211C11.8279 18.7811 13.9371 18.1165 15.5901 16.765L20.7932 21.968L21.968 20.7932ZM10.3355 16.9827C9.02085 16.9827 7.73569 16.5928 6.64257 15.8624C5.54946 15.132 4.69747 14.0939 4.19437 12.8793C3.69126 11.6647 3.55962 10.3282 3.81611 9.03874C4.07259 7.74932 4.70567 6.56491 5.63529 5.63529C6.56491 4.70567 7.74932 4.07259 9.03874 3.81611C10.3282 3.55962 11.6647 3.69126 12.8793 4.19437C14.0939 4.69747 15.132 5.54946 15.8624 6.64257C16.5928 7.73569 16.9827 9.02085 16.9827 10.3355C16.9807 12.0979 16.2797 13.7874 15.0336 15.0336C13.7874 16.2797 12.0979 16.9807 10.3355 16.9827Z" fill="#000000"/>
</svg>
