<svg width="20" height="20" viewBox="6 2 13 17" fill="none" xmlns="http://www.w3.org/2000/svg">
<path d="M12.4993 2.50008C12.4993 2.50008 6.66602 9.58342 6.66602 12.6667C6.66602 15.7501 9.24935 18.3334 12.4993 18.3334C15.7493 18.3334 18.3327 15.8334 18.3327 12.6667C18.3327 9.50008 12.4993 2.50008 12.4993 2.50008ZM16.5827 13.5834C16.5827 13.8334 16.416 14.0834 16.3327 14.3334C16.166 14.5001 16.0827 14.7501 15.916 14.9167C15.7493 15.0834 15.5827 15.2501 15.416 15.3334C15.0827 15.5834 14.666 15.6667 14.416 15.7501C14.0827 15.8334 13.8327 15.7501 13.666 15.7501C13.4993 15.7501 13.416 15.6667 13.416 15.6667L13.9993 15.0834C15.9993 13.4167 15.666 10.7501 15.666 10.7501C15.666 10.7501 15.7493 10.8334 15.916 10.9167C16.0827 11.0834 16.2494 11.2501 16.416 11.5834C16.5827 11.9167 16.7493 12.3334 16.7493 12.7501C16.666 13.0834 16.666 13.3334 16.5827 13.5834Z" fill="#1A98FF"/>
</svg>
