<svg width="16" height="16" viewBox="0 0 16 16" fill="none" xmlns="http://www.w3.org/2000/svg">
<path d="M7.6759 9.89112C7.76575 9.97242 7.88142 10.0172 8.00118 10.0172C8.12095 10.0173 8.23662 9.97243 8.32647 9.89112C8.44424 9.7846 11.21 7.25367 11.21 4.62884C11.21 2.81166 9.77057 1.33325 8.00123 1.33325C6.23185 1.33325 4.79239 2.81166 4.79239 4.62884C4.79229 7.25367 7.55812 9.7846 7.6759 9.89112ZM8.00118 3.76775C8.46054 3.76775 8.83304 4.15317 8.83304 4.62884C8.83304 5.10445 8.46054 5.48992 8.00118 5.48992C7.54168 5.48992 7.16923 5.1044 7.16923 4.62884C7.16923 4.15317 7.54168 3.76775 8.00118 3.76775Z" fill="#1A98FF"/>
<path d="M14.167 9.88965L13.7953 8.55234C13.766 8.44673 13.7039 8.3538 13.6185 8.28764C13.5331 8.22148 13.4291 8.18569 13.3221 8.18568H10.6693C10.5714 8.33514 10.47 8.48219 10.3652 8.62672C9.62166 9.65238 8.86576 10.3462 8.78196 10.422C8.56629 10.617 8.28872 10.7246 8.00131 10.7245C7.71386 10.7246 7.43626 10.617 7.22057 10.4219C7.13687 10.3462 6.38087 9.65228 5.63736 8.62672C5.53263 8.48218 5.43124 8.33513 5.33326 8.18568H2.68042C2.57344 8.18569 2.46938 8.22148 2.38399 8.28764C2.2986 8.3538 2.23653 8.44673 2.20718 8.55234L1.76417 10.1461L11.6668 12.0083L14.167 9.88965ZM15.3157 14.0226L14.3661 10.6056L9.65435 14.6666H14.8425C14.9187 14.6666 14.9938 14.6485 15.062 14.6136C15.1302 14.5787 15.1895 14.5281 15.2354 14.4656C15.2813 14.4032 15.3124 14.3307 15.3263 14.2538C15.3403 14.1769 15.3366 14.0978 15.3157 14.0226ZM3.07745 11.1123L1.57424 10.8296L0.686832 14.0226C0.665952 14.0978 0.662349 14.1769 0.676307 14.2538C0.690265 14.3306 0.721402 14.4031 0.76727 14.4655C0.813138 14.528 0.872485 14.5786 0.940644 14.6135C1.0088 14.6483 1.08391 14.6665 1.16007 14.6665H3.07745V11.1123ZM3.76649 11.2419V14.6665H8.58265L10.9819 12.5987L3.76649 11.2419Z" fill="#1A98FF"/>
</svg>
